<svg xmlns="http://www.w3.org/2000/svg" width="100" height="100" viewBox="0 0 100 100" fill="none">
  <!-- Container -->
  <path d="M30 25H70V85C70 87.2 68.2 89 66 89H34C31.8 89 30 87.2 30 85V25Z" fill="#F8F8F8" stroke="#0066CC" stroke-width="2"/>
  
  <!-- Container rim -->
  <path d="M27 25H73V28H27V25Z" fill="#0066CC"/>
  
  <!-- Emulsion droplets (milk - water and fat) -->
  <!-- Fat droplets -->
  <circle cx="40" cy="40" r="5" fill="#FFFFE0" fill-opacity="0.9" stroke="#FFFFCC" stroke-width="0.5"/>
  <circle cx="60" cy="50" r="6" fill="#FFFFE0" fill-opacity="0.9" stroke="#FFFFCC" stroke-width="0.5"/>
  <circle cx="45" cy="65" r="7" fill="#FFFFE0" fill-opacity="0.9" stroke="#FFFFCC" stroke-width="0.5"/>
  <circle cx="55" cy="75" r="4" fill="#FFFFE0" fill-opacity="0.9" stroke="#FFFFCC" stroke-width="0.5"/>
  <circle cx="35" cy="55" r="4.5" fill="#FFFFE0" fill-opacity="0.9" stroke="#FFFFCC" stroke-width="0.5"/>
  <circle cx="50" cy="45" r="3" fill="#FFFFE0" fill-opacity="0.9" stroke="#FFFFCC" stroke-width="0.5"/>
  <circle cx="65" cy="65" r="3.5" fill="#FFFFE0" fill-opacity="0.9" stroke="#FFFFCC" stroke-width="0.5"/>
  <circle cx="39" cy="80" r="2.5" fill="#FFFFE0" fill-opacity="0.9" stroke="#FFFFCC" stroke-width="0.5"/>
  
  <!-- Water molecules -->
  <path d="M42 35C42 36.1 41.1 37 40 37C38.9 37 38 36.1 38 35C38 33.9 40 32 40 32C40 32 42 33.9 42 35Z" fill="#E6F7FF"/>
  <path d="M62 47C62 48.1 61.1 49 60 49C58.9 49 58 48.1 58 47C58 45.9 60 44 60 44C60 44 62 45.9 62 47Z" fill="#E6F7FF"/>
  <path d="M47 63C47 64.1 46.1 65 45 65C43.9 65 43 64.1 43 63C43 61.9 45 60 45 60C45 60 47 61.9 47 63Z" fill="#E6F7FF"/>
  <path d="M57 72C57 73.1 56.1 74 55 74C53.9 74 53 73.1 53 72C53 70.9 55 69 55 69C55 69 57 70.9 57 72Z" fill="#E6F7FF"/>
</svg> 