<svg xmlns="http://www.w3.org/2000/svg" width="100" height="100" viewBox="0 0 100 100" fill="none">
  <!-- Funnel with filter paper -->
  <path d="M30 20H70L55 50V80L45 80V50L30 20Z" fill="#FFFFFF" stroke="#0066CC" stroke-width="2"/>
  
  <!-- Filter paper -->
  <path d="M33 25H67L55 48V50L45 50V48L33 25Z" fill="#F5F5F5" stroke="#CCCCCC" stroke-width="1"/>
  
  <!-- Residue in filter -->
  <path d="M45 48C45 46 47 45 50 45C53 45 55 46 55 48V50H45V48Z" fill="#8B4513"/>
  <circle cx="48" cy="45" r="1.5" fill="#8B4513"/>
  <circle cx="52" cy="45" r="1" fill="#8B4513"/>
  <circle cx="50" cy="44" r="1.2" fill="#8B4513"/>
  
  <!-- Erlenmeyer flask -->
  <path d="M35 80H65L60 95H40L35 80Z" fill="#E6F7FF" stroke="#0066CC" stroke-width="2"/>
  
  <!-- Filtrate -->
  <path d="M40 92.5C40 90.5 45 87 50 87C55 87 60 90.5 60 92.5V95H40V92.5Z" fill="#88CCFF"/>
  
  <!-- Liquid drops -->
  <path d="M52 65C52 66.1 51.1 67 50 67C48.9 67 48 66.1 48 65C48 63.9 50 62 50 62C50 62 52 63.9 52 65Z" fill="#88CCFF"/>
  <path d="M52 70C52 71.1 51.1 72 50 72C48.9 72 48 71.1 48 70C48 68.9 50 67 50 67C50 67 52 68.9 52 70Z" fill="#88CCFF"/>
  <path d="M52 75C52 76.1 51.1 77 50 77C48.9 77 48 76.1 48 75C48 73.9 50 72 50 72C50 72 52 73.9 52 75Z" fill="#88CCFF"/>
  
  <!-- Label text -->
  <text x="41" y="35" font-size="6" fill="#0066CC">Residu</text>
  <text x="43" y="90" font-size="6" fill="#0066CC">Filtraat</text>
</svg> 