<svg xmlns="http://www.w3.org/2000/svg" width="100" height="100" viewBox="0 0 100 100" fill="none">
  <!-- Beaker container -->
  <path d="M30 25H70V85C70 87.2 68.2 89 66 89H34C31.8 89 30 87.2 30 85V25Z" fill="#E6F7FF" stroke="#0066CC" stroke-width="2"/>
  
  <!-- Beaker rim -->
  <path d="M27 25H73V28H27V25Z" fill="#0066CC"/>
  
  <!-- Suspended particles (chocolate in milk) -->
  <rect x="35" y="40" width="7" height="7" rx="1" fill="#8B4513"/>
  <rect x="58" y="45" width="7" height="7" rx="1" fill="#8B4513"/>
  <rect x="45" y="55" width="7" height="7" rx="1" fill="#8B4513"/>
  <rect x="60" y="65" width="7" height="7" rx="1" fill="#8B4513"/>
  <rect x="50" y="70" width="7" height="7" rx="1" fill="#8B4513"/>
  <rect x="40" y="75" width="7" height="7" rx="1" fill="#8B4513"/>
  
  <!-- Some particles sinking -->
  <rect x="48" y="78" width="5" height="5" rx="1" fill="#8B4513"/>
  <rect x="58" y="76" width="5" height="5" rx="1" fill="#8B4513"/>
  <rect x="35" y="80" width="5" height="5" rx="1" fill="#8B4513"/>
  
  <!-- Liquid -->
  <path d="M42 35C42 36.6569 40.6569 38 39 38C37.3431 38 36 36.6569 36 35C36 33.3431 39 30 39 30C39 30 42 33.3431 42 35Z" fill="#FFFFFF" fill-opacity="0.7"/>
  <path d="M52 40C52 41.6569 50.6569 43 49 43C47.3431 43 46 41.6569 46 40C46 38.3431 49 35 49 35C49 35 52 38.3431 52 40Z" fill="#FFFFFF" fill-opacity="0.7"/>
  <path d="M67 55C67 56.6569 65.6569 58 64 58C62.3431 58 61 56.6569 61 55C61 53.3431 64 50 64 50C64 50 67 53.3431 67 55Z" fill="#FFFFFF" fill-opacity="0.7"/>
</svg> 